<svg xmlns="http://www.w3.org/2000/svg" xmlns:xlink="http://www.w3.org/1999/xlink" width="512" zoomAndPan="magnify" viewBox="0 0 384 206.249992" height="275" preserveAspectRatio="xMidYMid meet" version="1.0"><defs><g/><clipPath id="2e355a0e25"><rect x="0" width="228" y="0" height="62"/></clipPath><clipPath id="cd78fcc2e8"><rect x="0" width="347" y="0" height="179"/></clipPath><clipPath id="56e185c909"><path d="M 99 122 L 110 122 L 110 140 L 99 140 Z M 99 122 " clip-rule="nonzero"/></clipPath><clipPath id="56093b5511"><path d="M 107.046875 121.230469 L 111.300781 123.269531 L 103.53125 139.46875 L 99.277344 137.429688 Z M 107.046875 121.230469 " clip-rule="nonzero"/></clipPath><clipPath id="16a28520b5"><path d="M 109.171875 122.25 L 103.535156 139.464844 L 99.28125 137.425781 Z M 109.171875 122.25 " clip-rule="nonzero"/></clipPath><clipPath id="16dfa8b268"><path d="M 0.21875 0.195312 L 10.261719 0.195312 L 10.261719 17.652344 L 0.21875 17.652344 Z M 0.21875 0.195312 " clip-rule="nonzero"/></clipPath><clipPath id="85b7d9bc07"><path d="M 8.046875 -0.769531 L 12.300781 1.269531 L 4.53125 17.46875 L 0.277344 15.429688 Z M 8.046875 -0.769531 " clip-rule="nonzero"/></clipPath><clipPath id="d280ff73aa"><path d="M 10.171875 0.25 L 4.535156 17.464844 L 0.28125 15.425781 Z M 10.171875 0.25 " clip-rule="nonzero"/></clipPath><clipPath id="1457854590"><rect x="0" width="11" y="0" height="18"/></clipPath><clipPath id="2b38f48523"><path d="M 252 143 L 267 143 L 267 158 L 252 158 Z M 252 143 " clip-rule="nonzero"/></clipPath><clipPath id="a745439f60"><path d="M 253.804688 158.574219 L 251.03125 155.800781 L 263.738281 143.09375 L 266.511719 145.867188 Z M 253.804688 158.574219 " clip-rule="nonzero"/></clipPath><clipPath id="a826b7aa45"><path d="M 252.417969 157.1875 L 263.730469 143.101562 L 266.503906 145.875 Z M 252.417969 157.1875 " clip-rule="nonzero"/></clipPath><clipPath id="ccafc46ae7"><path d="M 0.261719 0 L 14.609375 0 L 14.609375 14.347656 L 0.261719 14.347656 Z M 0.261719 0 " clip-rule="nonzero"/></clipPath><clipPath id="25aa246523"><path d="M 1.804688 15.574219 L -0.96875 12.800781 L 11.738281 0.09375 L 14.511719 2.867188 Z M 1.804688 15.574219 " clip-rule="nonzero"/></clipPath><clipPath id="fcef985ffc"><path d="M 0.417969 14.1875 L 11.730469 0.101562 L 14.503906 2.875 Z M 0.417969 14.1875 " clip-rule="nonzero"/></clipPath><clipPath id="4c937b2bbf"><rect x="0" width="15" y="0" height="15"/></clipPath><clipPath id="2a034c6d6d"><path d="M 253 145 L 266 145 L 266 161 L 253 161 Z M 253 145 " clip-rule="nonzero"/></clipPath><clipPath id="d73913422f"><path d="M 254.835938 161.722656 L 251.730469 159.328125 L 262.703125 145.09375 L 265.808594 147.488281 Z M 254.835938 161.722656 " clip-rule="nonzero"/></clipPath><clipPath id="2440609b5b"><path d="M 253.285156 160.527344 L 262.695312 145.101562 L 265.800781 147.496094 Z M 253.285156 160.527344 " clip-rule="nonzero"/></clipPath><clipPath id="ae256077cb"><path d="M 0.21875 0 L 12.890625 0 L 12.890625 15.695312 L 0.21875 15.695312 Z M 0.21875 0 " clip-rule="nonzero"/></clipPath><clipPath id="fc441aeb2d"><path d="M 1.835938 16.722656 L -1.269531 14.328125 L 9.703125 0.09375 L 12.808594 2.488281 Z M 1.835938 16.722656 " clip-rule="nonzero"/></clipPath><clipPath id="3fb3b50a8c"><path d="M 0.285156 15.527344 L 9.695312 0.101562 L 12.800781 2.496094 Z M 0.285156 15.527344 " clip-rule="nonzero"/></clipPath><clipPath id="06614691b9"><rect x="0" width="13" y="0" height="16"/></clipPath></defs><g transform="matrix(1, 0, 0, 1, 126, 6)"><g clip-path="url(#2e355a0e25)"><g fill="#1f20a4" fill-opacity="1"><g transform="translate(0.65276, 46.105649)"><g><path d="M 18.125 -0.0625 L 13.5625 -0.0625 L 6.5 -33.9375 L 6.5 0 L 2.375 0 L 2.375 -42.5625 L 9 -42.5625 L 16 -8.578125 L 22.75 -42.5625 L 29.375 -42.5625 L 29.375 0 L 24.875 0 L 24.875 -34.234375 Z M 18.125 -0.0625 "/></g></g></g><g fill="#1f20a4" fill-opacity="1"><g transform="translate(32.455548, 46.105649)"><g><path d="M 6.9375 -10.03125 C 6.9375 -8.082031 7.328125 -6.570312 8.109375 -5.5 C 8.898438 -4.425781 10.171875 -3.890625 11.921875 -3.890625 C 13.617188 -3.890625 14.863281 -4.425781 15.65625 -5.5 C 16.445312 -6.570312 16.84375 -8.082031 16.84375 -10.03125 L 16.84375 -42.5625 L 21.28125 -42.5625 L 21.28125 -10.28125 C 21.28125 -7.03125 20.507812 -4.421875 18.96875 -2.453125 C 17.425781 -0.492188 15.015625 0.484375 11.734375 0.484375 C 8.492188 0.484375 6.101562 -0.492188 4.5625 -2.453125 C 3.019531 -4.421875 2.25 -7.03125 2.25 -10.28125 L 2.25 -42.5625 L 6.9375 -42.5625 Z M 6.9375 -10.03125 "/></g></g></g><g fill="#1f20a4" fill-opacity="1"><g transform="translate(55.988394, 46.105649)"><g><path d="M 11.375 -43 C 14.613281 -43 17.003906 -42.035156 18.546875 -40.109375 C 20.085938 -38.179688 20.859375 -35.597656 20.859375 -32.359375 L 20.859375 -31.203125 L 16.359375 -31.203125 L 16.359375 -32.59375 C 16.359375 -34.539062 15.972656 -36.039062 15.203125 -37.09375 C 14.429688 -38.144531 13.195312 -38.671875 11.5 -38.671875 C 9.789062 -38.671875 8.550781 -38.144531 7.78125 -37.09375 C 7.007812 -36.039062 6.625 -34.5625 6.625 -32.65625 C 6.625 -31.070312 6.976562 -29.691406 7.6875 -28.515625 C 8.394531 -27.335938 9.273438 -26.253906 10.328125 -25.265625 C 11.390625 -24.273438 12.535156 -23.300781 13.765625 -22.34375 C 15.003906 -21.394531 16.148438 -20.351562 17.203125 -19.21875 C 18.265625 -18.082031 19.148438 -16.796875 19.859375 -15.359375 C 20.566406 -13.921875 20.921875 -12.207031 20.921875 -10.21875 C 20.921875 -6.96875 20.140625 -4.378906 18.578125 -2.453125 C 17.015625 -0.535156 14.59375 0.421875 11.3125 0.421875 C 8.03125 0.421875 5.617188 -0.535156 4.078125 -2.453125 C 2.535156 -4.378906 1.765625 -6.96875 1.765625 -10.21875 L 1.765625 -12.65625 L 6.203125 -12.65625 L 6.203125 -9.96875 C 6.203125 -8.019531 6.609375 -6.519531 7.421875 -5.46875 C 8.234375 -4.414062 9.488281 -3.890625 11.1875 -3.890625 C 12.894531 -3.890625 14.148438 -4.414062 14.953125 -5.46875 C 15.765625 -6.519531 16.171875 -8.019531 16.171875 -9.96875 C 16.171875 -11.550781 15.816406 -12.921875 15.109375 -14.078125 C 14.398438 -15.234375 13.519531 -16.304688 12.46875 -17.296875 C 11.414062 -18.296875 10.28125 -19.269531 9.0625 -20.21875 C 7.84375 -21.175781 6.707031 -22.222656 5.65625 -23.359375 C 4.601562 -24.492188 3.722656 -25.78125 3.015625 -27.21875 C 2.304688 -28.65625 1.953125 -30.367188 1.953125 -32.359375 C 1.953125 -35.640625 2.71875 -38.234375 4.25 -40.140625 C 5.789062 -42.046875 8.164062 -43 11.375 -43 Z M 11.375 -43 "/></g></g></g><g fill="#1f20a4" fill-opacity="1"><g transform="translate(78.609118, 46.105649)"><g><path d="M 7.171875 -42.5625 L 7.171875 0 L 2.4375 0 L 2.4375 -42.5625 Z M 7.171875 -42.5625 "/></g></g></g><g fill="#1f20a4" fill-opacity="1"><g transform="translate(88.216846, 46.105649)"><g><path d="M 9.671875 -18.484375 L 7.171875 -14.296875 L 7.171875 0 L 2.4375 0 L 2.4375 -42.5625 L 7.171875 -42.5625 L 7.171875 -22.015625 L 18.484375 -42.5625 L 23.296875 -42.5625 L 12.53125 -23.171875 L 23.65625 0 L 18.796875 0 Z M 9.671875 -18.484375 "/></g></g></g><g fill="#1f20a4" fill-opacity="1"><g transform="translate(112.783433, 46.105649)"><g><path d="M 11.375 -43 C 14.613281 -43 17.003906 -42.035156 18.546875 -40.109375 C 20.085938 -38.179688 20.859375 -35.597656 20.859375 -32.359375 L 20.859375 -31.203125 L 16.359375 -31.203125 L 16.359375 -32.59375 C 16.359375 -34.539062 15.972656 -36.039062 15.203125 -37.09375 C 14.429688 -38.144531 13.195312 -38.671875 11.5 -38.671875 C 9.789062 -38.671875 8.550781 -38.144531 7.78125 -37.09375 C 7.007812 -36.039062 6.625 -34.5625 6.625 -32.65625 C 6.625 -31.070312 6.976562 -29.691406 7.6875 -28.515625 C 8.394531 -27.335938 9.273438 -26.253906 10.328125 -25.265625 C 11.390625 -24.273438 12.535156 -23.300781 13.765625 -22.34375 C 15.003906 -21.394531 16.148438 -20.351562 17.203125 -19.21875 C 18.265625 -18.082031 19.148438 -16.796875 19.859375 -15.359375 C 20.566406 -13.921875 20.921875 -12.207031 20.921875 -10.21875 C 20.921875 -6.96875 20.140625 -4.378906 18.578125 -2.453125 C 17.015625 -0.535156 14.59375 0.421875 11.3125 0.421875 C 8.03125 0.421875 5.617188 -0.535156 4.078125 -2.453125 C 2.535156 -4.378906 1.765625 -6.96875 1.765625 -10.21875 L 1.765625 -12.65625 L 6.203125 -12.65625 L 6.203125 -9.96875 C 6.203125 -8.019531 6.609375 -6.519531 7.421875 -5.46875 C 8.234375 -4.414062 9.488281 -3.890625 11.1875 -3.890625 C 12.894531 -3.890625 14.148438 -4.414062 14.953125 -5.46875 C 15.765625 -6.519531 16.171875 -8.019531 16.171875 -9.96875 C 16.171875 -11.550781 15.816406 -12.921875 15.109375 -14.078125 C 14.398438 -15.234375 13.519531 -16.304688 12.46875 -17.296875 C 11.414062 -18.296875 10.28125 -19.269531 9.0625 -20.21875 C 7.84375 -21.175781 6.707031 -22.222656 5.65625 -23.359375 C 4.601562 -24.492188 3.722656 -25.78125 3.015625 -27.21875 C 2.304688 -28.65625 1.953125 -30.367188 1.953125 -32.359375 C 1.953125 -35.640625 2.71875 -38.234375 4.25 -40.140625 C 5.789062 -42.046875 8.164062 -43 11.375 -43 Z M 11.375 -43 "/></g></g></g><g fill="#1f20a4" fill-opacity="1"><g transform="translate(135.404157, 46.105649)"><g><path d="M 8.640625 0 L 8.640625 -38.25 L 0.796875 -38.25 L 0.796875 -42.5625 L 21.21875 -42.5625 L 21.21875 -38.25 L 13.375 -38.25 L 13.375 0 Z M 8.640625 0 "/></g></g></g><g fill="#1f20a4" fill-opacity="1"><g transform="translate(155.166836, 46.105649)"><g><path d="M 7.234375 -8.578125 L 5.59375 0 L 1.21875 0 L 9.359375 -42.5625 L 16.234375 -42.5625 L 24.390625 0 L 19.640625 0 L 18 -8.578125 Z M 7.84375 -12.65625 L 17.328125 -12.65625 L 12.53125 -37.21875 Z M 7.84375 -12.65625 "/></g></g></g><g fill="#1f20a4" fill-opacity="1"><g transform="translate(180.827969, 46.105649)"><g><path d="M 12.40625 -42.5625 C 15.726562 -42.5625 18.171875 -41.617188 19.734375 -39.734375 C 21.296875 -37.847656 22.078125 -35.265625 22.078125 -31.984375 L 22.078125 -10.515625 C 22.078125 -7.234375 21.296875 -4.660156 19.734375 -2.796875 C 18.171875 -0.929688 15.726562 0 12.40625 0 L 2.4375 0 L 2.4375 -42.5625 Z M 12.34375 -4.3125 C 14.050781 -4.3125 15.316406 -4.828125 16.140625 -5.859375 C 16.972656 -6.898438 17.390625 -8.394531 17.390625 -10.34375 L 17.390625 -32.234375 C 17.390625 -34.179688 16.972656 -35.671875 16.140625 -36.703125 C 15.316406 -37.734375 14.03125 -38.25 12.28125 -38.25 L 7.171875 -38.25 L 7.171875 -4.3125 Z M 12.34375 -4.3125 "/></g></g></g><g fill="#1f20a4" fill-opacity="1"><g transform="translate(204.908108, 46.105649)"><g><path d="M 8.640625 0 L 8.640625 -38.25 L 0.796875 -38.25 L 0.796875 -42.5625 L 21.21875 -42.5625 L 21.21875 -38.25 L 13.375 -38.25 L 13.375 0 Z M 8.640625 0 "/></g></g></g></g></g><g transform="matrix(1, 0, 0, 1, 21, 26)"><g clip-path="url(#cd78fcc2e8)"><g fill="#bfa854" fill-opacity="1"><g transform="translate(2.907794, 136.52664)"><g><path d="M 30.84375 12.84375 C 24.75 12.84375 19.289062 11.613281 14.46875 9.15625 C 9.644531 6.695312 5.925781 3.351562 3.3125 -0.875 C 0.707031 -5.113281 -0.59375 -9.789062 -0.59375 -14.90625 C -0.59375 -20.707031 1.050781 -26.335938 4.34375 -31.796875 C 7.644531 -37.265625 12.148438 -41.914062 17.859375 -45.75 C 23.566406 -49.59375 29.960938 -52.003906 37.046875 -52.984375 C 33.597656 -56.035156 30.960938 -59.476562 29.140625 -63.3125 C 27.328125 -67.15625 26.421875 -71.140625 26.421875 -75.265625 C 26.421875 -80.484375 27.769531 -85.476562 30.46875 -90.25 C 33.175781 -95.019531 36.96875 -98.859375 41.84375 -101.765625 C 46.71875 -104.671875 52.253906 -106.125 58.453125 -106.125 C 64.453125 -106.125 69.070312 -104.671875 72.3125 -101.765625 C 75.5625 -98.859375 77.1875 -94.648438 77.1875 -89.140625 C 77.1875 -85.503906 76.519531 -81.914062 75.1875 -78.375 C 73.863281 -74.832031 72.191406 -71.953125 70.171875 -69.734375 C 68.160156 -67.523438 66.269531 -66.421875 64.5 -66.421875 C 62.039062 -66.421875 59.675781 -68.4375 57.40625 -72.46875 C 66.070312 -79.550781 70.40625 -86.144531 70.40625 -92.25 C 70.40625 -95.101562 69.441406 -97.316406 67.515625 -98.890625 C 65.597656 -100.460938 63.019531 -101.25 59.78125 -101.25 C 55.539062 -101.25 51.894531 -99.941406 48.84375 -97.328125 C 45.800781 -94.722656 43.492188 -91.328125 41.921875 -87.140625 C 40.347656 -82.960938 39.5625 -78.5625 39.5625 -73.9375 C 39.5625 -69.3125 40.421875 -64.910156 42.140625 -60.734375 C 43.859375 -56.554688 46.640625 -52.988281 50.484375 -50.03125 C 43.585938 -48.945312 37.507812 -46.5625 32.25 -42.875 C 26.988281 -39.1875 22.90625 -34.804688 20 -29.734375 C 17.09375 -24.671875 15.640625 -19.628906 15.640625 -14.609375 C 15.640625 -11.265625 16.300781 -8.015625 17.625 -4.859375 C 18.957031 -1.710938 21.050781 0.914062 23.90625 3.03125 C 26.757812 5.144531 30.398438 6.203125 34.828125 6.203125 C 40.046875 6.203125 45.285156 4.722656 50.546875 1.765625 C 55.816406 -1.179688 60.664062 -5.113281 65.09375 -10.03125 C 69.519531 -14.957031 73.0625 -20.222656 75.71875 -25.828125 L 79.703125 -23.3125 C 73.898438 -12.394531 66.816406 -3.640625 58.453125 2.953125 C 50.085938 9.546875 40.882812 12.84375 30.84375 12.84375 Z M 30.84375 12.84375 "/></g></g></g><g fill="#bfa854" fill-opacity="1"><g transform="translate(75.226403, 136.52664)"><g><path d="M 27.3125 3.84375 C 23.664062 3.84375 20.707031 2.878906 18.4375 0.953125 C 16.175781 -0.960938 15.046875 -3.546875 15.046875 -6.796875 C 15.046875 -8.660156 15.414062 -10.695312 16.15625 -12.90625 C 16.894531 -15.125 18.003906 -17.804688 19.484375 -20.953125 C 20.765625 -23.710938 21.75 -26.050781 22.4375 -27.96875 C 23.125 -29.882812 23.46875 -31.582031 23.46875 -33.0625 C 23.46875 -36.800781 21.007812 -39.945312 16.09375 -42.5 C 14.125 -37.582031 11.832031 -32.613281 9.21875 -27.59375 C 6.613281 -22.582031 4.28125 -18.351562 2.21875 -14.90625 L 0 -19.1875 C 4.53125 -27.257812 8.515625 -36.164062 11.953125 -45.90625 C 10.972656 -46.882812 10.484375 -48.210938 10.484375 -49.890625 C 10.484375 -52.441406 11.269531 -54.847656 12.84375 -57.109375 C 14.414062 -59.378906 15.941406 -60.515625 17.421875 -60.515625 C 18.398438 -60.515625 19.207031 -59.921875 19.84375 -58.734375 C 20.488281 -57.554688 20.8125 -56.578125 20.8125 -55.796875 C 20.8125 -55.398438 20.585938 -54.535156 20.140625 -53.203125 C 19.703125 -51.878906 19.382812 -50.921875 19.1875 -50.328125 C 19.28125 -49.640625 19.671875 -48.972656 20.359375 -48.328125 C 21.054688 -47.691406 22.335938 -46.785156 24.203125 -45.609375 C 27.648438 -43.347656 30.332031 -41.15625 32.25 -39.03125 C 34.164062 -36.914062 35.125 -34.085938 35.125 -30.546875 C 35.125 -28.390625 34.753906 -26.226562 34.015625 -24.0625 C 33.273438 -21.894531 32.171875 -19.285156 30.703125 -16.234375 C 28.535156 -11.898438 27.453125 -8.800781 27.453125 -6.9375 C 27.453125 -4.675781 28.679688 -3.546875 31.140625 -3.546875 C 34.085938 -3.546875 37.304688 -4.722656 40.796875 -7.078125 C 44.296875 -9.441406 47.492188 -12.320312 50.390625 -15.71875 C 53.296875 -19.113281 55.441406 -22.285156 56.828125 -25.234375 L 60.359375 -22.578125 C 58.390625 -18.148438 55.632812 -13.921875 52.09375 -9.890625 C 48.550781 -5.859375 44.59375 -2.5625 40.21875 0 C 35.84375 2.5625 31.539062 3.84375 27.3125 3.84375 Z M 27.3125 3.84375 "/></g></g></g><g fill="#bfa854" fill-opacity="1"><g transform="translate(128.801225, 136.52664)"><g><path d="M -0.140625 41.328125 C -2.503906 41.328125 -4.691406 40.289062 -6.703125 38.21875 C -8.722656 36.15625 -9.734375 32.46875 -9.734375 27.15625 C -9.734375 16.925781 -6.070312 0.789062 1.25 -21.25 C 8.582031 -43.289062 17.242188 -62.96875 27.234375 -80.28125 C 37.222656 -97.601562 46.347656 -106.265625 54.609375 -106.265625 C 58.742188 -106.265625 60.8125 -103.753906 60.8125 -98.734375 C 60.8125 -93.328125 58.867188 -87.175781 54.984375 -80.28125 C 51.097656 -73.394531 46.050781 -66.679688 39.84375 -60.140625 C 33.644531 -53.597656 27.203125 -48.113281 20.515625 -43.6875 L 18.15625 -37.78125 C 19.132812 -37.382812 19.941406 -36.691406 20.578125 -35.703125 C 21.222656 -34.722656 21.644531 -33.695312 21.84375 -32.625 C 22.820312 -27.300781 23.707031 -23.210938 24.5 -20.359375 C 25.289062 -17.515625 26.492188 -15.207031 28.109375 -13.4375 C 29.734375 -11.664062 31.972656 -10.78125 34.828125 -10.78125 C 38.078125 -10.78125 41.003906 -11.957031 43.609375 -14.3125 C 46.222656 -16.675781 49.050781 -20.367188 52.09375 -25.390625 L 55.34375 -23.03125 C 52.394531 -17.019531 48.976562 -12.488281 45.09375 -9.4375 C 41.207031 -6.394531 37.539062 -4.875 34.09375 -4.875 C 30.75 -4.875 27.253906 -6.203125 23.609375 -8.859375 C 23.515625 -0.890625 22.3125 7.003906 20 14.828125 C 17.6875 22.648438 14.707031 29.019531 11.0625 33.9375 C 7.425781 38.863281 3.691406 41.328125 -0.140625 41.328125 Z M 24.796875 -54.015625 C 30.398438 -59.328125 35.367188 -64.640625 39.703125 -69.953125 C 44.035156 -75.265625 47.359375 -80.007812 49.671875 -84.1875 C 51.984375 -88.375 53.140625 -91.351562 53.140625 -93.125 C 53.140625 -93.914062 52.742188 -94.3125 51.953125 -94.3125 C 48.503906 -94.3125 44.367188 -90.597656 39.546875 -83.171875 C 34.734375 -75.742188 29.816406 -66.023438 24.796875 -54.015625 Z M 3.984375 32.171875 C 5.753906 32.171875 7.695312 29.804688 9.8125 25.078125 C 11.925781 20.359375 13.742188 14.703125 15.265625 8.109375 C 16.796875 1.523438 17.5625 -4.128906 17.5625 -8.859375 C 17.5625 -11.609375 17.238281 -14.085938 16.59375 -16.296875 C 15.957031 -18.515625 14.851562 -21.050781 13.28125 -23.90625 C 9.738281 -13.28125 6.910156 -3.59375 4.796875 5.15625 C 2.679688 13.914062 1.625 20.804688 1.625 25.828125 C 1.625 30.054688 2.410156 32.171875 3.984375 32.171875 Z M 3.984375 32.171875 "/></g></g></g><g fill="#bfa854" fill-opacity="1"><g transform="translate(177.505614, 136.52664)"><g><path d="M 11.21875 4.421875 C 7.96875 4.421875 5.257812 2.898438 3.09375 -0.140625 C 0.9375 -3.191406 -0.140625 -6.785156 -0.140625 -10.921875 C -0.140625 -14.460938 0.644531 -18.890625 2.21875 -24.203125 C 3.789062 -29.515625 5.632812 -34.140625 7.75 -38.078125 C 9.863281 -42.015625 11.707031 -43.984375 13.28125 -43.984375 C 13.96875 -43.984375 15.023438 -43.613281 16.453125 -42.875 C 17.878906 -42.132812 19.132812 -41.222656 20.21875 -40.140625 C 18.15625 -37.085938 16.015625 -32.707031 13.796875 -27 C 11.585938 -21.300781 10.484375 -16.382812 10.484375 -12.25 C 10.484375 -10.382812 10.753906 -8.441406 11.296875 -6.421875 C 11.835938 -4.398438 13.039062 -3.390625 14.90625 -3.390625 C 18.550781 -3.390625 22.90625 -7.445312 27.96875 -15.5625 C 33.03125 -23.6875 37.382812 -31.929688 41.03125 -40.296875 C 46.9375 -39.304688 49.890625 -37.632812 49.890625 -35.28125 C 49.890625 -35.082031 49.296875 -33.65625 48.109375 -31 C 46.046875 -26.175781 44.273438 -21.695312 42.796875 -17.5625 C 41.328125 -13.425781 40.59375 -9.835938 40.59375 -6.796875 C 40.59375 -3.347656 41.921875 -1.625 44.578125 -1.625 C 46.640625 -1.625 49.117188 -2.582031 52.015625 -4.5 C 54.921875 -6.414062 57.898438 -9.171875 60.953125 -12.765625 C 64.003906 -16.359375 66.660156 -20.515625 68.921875 -25.234375 L 71.140625 -23.46875 C 68.972656 -18.15625 66.164062 -13.378906 62.71875 -9.140625 C 59.28125 -4.910156 55.566406 -1.59375 51.578125 0.8125 C 47.597656 3.21875 43.785156 4.421875 40.140625 4.421875 C 35.816406 4.421875 33.039062 2.921875 31.8125 -0.078125 C 30.582031 -3.078125 29.96875 -7.085938 29.96875 -12.109375 C 26.613281 -6.984375 23.460938 -2.945312 20.515625 0 C 17.566406 2.945312 14.46875 4.421875 11.21875 4.421875 Z M 11.21875 4.421875 "/></g></g></g><g fill="#bfa854" fill-opacity="1"><g transform="translate(242.592386, 136.52664)"><g><path d="M 27.3125 3.84375 C 23.664062 3.84375 20.707031 2.878906 18.4375 0.953125 C 16.175781 -0.960938 15.046875 -3.546875 15.046875 -6.796875 C 15.046875 -8.660156 15.414062 -10.695312 16.15625 -12.90625 C 16.894531 -15.125 18.003906 -17.804688 19.484375 -20.953125 C 20.765625 -23.710938 21.75 -26.050781 22.4375 -27.96875 C 23.125 -29.882812 23.46875 -31.582031 23.46875 -33.0625 C 23.46875 -36.800781 21.007812 -39.945312 16.09375 -42.5 C 14.125 -37.582031 11.832031 -32.613281 9.21875 -27.59375 C 6.613281 -22.582031 4.28125 -18.351562 2.21875 -14.90625 L 0 -19.1875 C 4.53125 -27.257812 8.515625 -36.164062 11.953125 -45.90625 C 10.972656 -46.882812 10.484375 -48.210938 10.484375 -49.890625 C 10.484375 -52.441406 11.269531 -54.847656 12.84375 -57.109375 C 14.414062 -59.378906 15.941406 -60.515625 17.421875 -60.515625 C 18.398438 -60.515625 19.207031 -59.921875 19.84375 -58.734375 C 20.488281 -57.554688 20.8125 -56.578125 20.8125 -55.796875 C 20.8125 -55.398438 20.585938 -54.535156 20.140625 -53.203125 C 19.703125 -51.878906 19.382812 -50.921875 19.1875 -50.328125 C 19.28125 -49.640625 19.671875 -48.972656 20.359375 -48.328125 C 21.054688 -47.691406 22.335938 -46.785156 24.203125 -45.609375 C 27.648438 -43.347656 30.332031 -41.15625 32.25 -39.03125 C 34.164062 -36.914062 35.125 -34.085938 35.125 -30.546875 C 35.125 -28.390625 34.753906 -26.226562 34.015625 -24.0625 C 33.273438 -21.894531 32.171875 -19.285156 30.703125 -16.234375 C 28.535156 -11.898438 27.453125 -8.800781 27.453125 -6.9375 C 27.453125 -4.675781 28.679688 -3.546875 31.140625 -3.546875 C 34.085938 -3.546875 37.304688 -4.722656 40.796875 -7.078125 C 44.296875 -9.441406 47.492188 -12.320312 50.390625 -15.71875 C 53.296875 -19.113281 55.441406 -22.285156 56.828125 -25.234375 L 60.359375 -22.578125 C 58.390625 -18.148438 55.632812 -13.921875 52.09375 -9.890625 C 48.550781 -5.859375 44.59375 -2.5625 40.21875 0 C 35.84375 2.5625 31.539062 3.84375 27.3125 3.84375 Z M 27.3125 3.84375 "/></g></g></g><g fill="#bfa854" fill-opacity="1"><g transform="translate(296.167209, 136.52664)"><g><path d="M 13.4375 6.796875 C 8.90625 6.796875 5.359375 5.488281 2.796875 2.875 C 0.242188 0.269531 -1.03125 -3.585938 -1.03125 -8.703125 C -1.03125 -12.546875 -0.296875 -17.441406 1.171875 -23.390625 C 2.648438 -29.347656 4.617188 -35.671875 7.078125 -42.359375 C 4.523438 -42.847656 2.804688 -43.289062 1.921875 -43.6875 L 1.921875 -48.265625 C 4.285156 -47.972656 6.644531 -47.726562 9 -47.53125 C 13.425781 -58.644531 18.171875 -68.1875 23.234375 -76.15625 C 28.304688 -84.125 32.414062 -88.109375 35.5625 -88.109375 C 36.644531 -88.109375 37.601562 -87.710938 38.4375 -86.921875 C 39.28125 -86.140625 39.703125 -85.109375 39.703125 -83.828125 C 39.703125 -82.253906 39.007812 -80.140625 37.625 -77.484375 C 36.25 -74.828125 33.988281 -70.796875 30.84375 -65.390625 C 26.519531 -58.109375 23.125 -52.003906 20.65625 -47.078125 C 31.976562 -47.078125 40.984375 -47.421875 47.671875 -48.109375 L 47.671875 -43.25 C 36.054688 -42.0625 26.164062 -41.46875 18 -41.46875 C 12.882812 -29.363281 10.328125 -19.476562 10.328125 -11.8125 C 10.328125 -7.769531 10.96875 -4.910156 12.25 -3.234375 C 13.53125 -1.566406 15.546875 -0.734375 18.296875 -0.734375 C 23.222656 -0.734375 28.265625 -2.972656 33.421875 -7.453125 C 38.585938 -11.929688 43.09375 -18.007812 46.9375 -25.6875 L 49 -24.203125 C 44.96875 -15.054688 39.753906 -7.601562 33.359375 -1.84375 C 26.960938 3.914062 20.320312 6.796875 13.4375 6.796875 Z M 13.4375 6.796875 "/></g></g></g></g></g><g clip-path="url(#56e185c909)"><g clip-path="url(#56093b5511)"><g clip-path="url(#16a28520b5)"><g transform="matrix(1, 0, 0, 1, 99, 122)"><g clip-path="url(#1457854590)"><g clip-path="url(#16dfa8b268)"><g clip-path="url(#85b7d9bc07)"><g clip-path="url(#d280ff73aa)"><path fill="#bfa854" d="M 8.046875 -0.769531 L 12.300781 1.269531 L 4.53125 17.46875 L 0.277344 15.429688 Z M 8.046875 -0.769531 " fill-opacity="1" fill-rule="nonzero"/></g></g></g></g></g></g></g></g><g clip-path="url(#2b38f48523)"><g clip-path="url(#a745439f60)"><g clip-path="url(#a826b7aa45)"><g transform="matrix(1, 0, 0, 1, 252, 143)"><g clip-path="url(#4c937b2bbf)"><g clip-path="url(#ccafc46ae7)"><g clip-path="url(#25aa246523)"><g clip-path="url(#fcef985ffc)"><path fill="#bfa854" d="M 1.804688 15.574219 L -0.96875 12.800781 L 11.726562 0.105469 L 14.5 2.878906 Z M 1.804688 15.574219 " fill-opacity="1" fill-rule="nonzero"/></g></g></g></g></g></g></g></g><g clip-path="url(#2a034c6d6d)"><g clip-path="url(#d73913422f)"><g clip-path="url(#2440609b5b)"><g transform="matrix(1, 0, 0, 1, 253, 145)"><g clip-path="url(#06614691b9)"><g clip-path="url(#ae256077cb)"><g clip-path="url(#fc441aeb2d)"><g clip-path="url(#3fb3b50a8c)"><path fill="#bfa854" d="M 1.835938 16.722656 L -1.269531 14.328125 L 9.691406 0.105469 L 12.800781 2.5 Z M 1.835938 16.722656 " fill-opacity="1" fill-rule="nonzero"/></g></g></g></g></g></g></g></g></svg>